<svg width="1402" height="2537" viewBox="0 0 1402 2537" fill="none" xmlns="http://www.w3.org/2000/svg">
  <path
    d="M689 0V62H282.5V95.5M282.5 95.5L132 206.5L189.5 386H379L429.5 216M282.5 95.5L429.5 216M429.5 216H943.5M943.5 216L1044.5 177.5L1149 216L1206.5 312.5L1189 421.5L1107 493.5H998L911.5 421.5L890.5 312.5M943.5 216L890.5 312.5M890.5 312.5H533V556M533 556H300.5L379 703.5L300.5 851.5H542.5L619.5 703.5M533 556L619.5 703.5M619.5 703.5H1065.5V737.5M1065.5 737.5L1258 883.5L1065.5 1029.5V920.5H1019V1029.5L823 883.5M1065.5 737.5V851.5H1019V737.5L823 883.5M823 883.5H249V968M249 968L160.5 993.5L98 1061L82 1158.5L120.5 1250L197.5 1300H290.5L371 1247L411 1158.5M249 968L343 993.5L395 1061L411 1158.5M411 1158.5H863.5H1258V2270.5H6V2531H1458.5"
    stroke="url(#paint0_linear_221_49)" stroke-width="12" />
  <defs>
    <linearGradient id="paint0_linear_221_49" x1="718.499" y1="615.378" x2="718.499" y2="1963.62"
      gradientUnits="userSpaceOnUse">
      <stop stop-color="#062448" />
      <stop offset="0.5" stop-color="#0A7A7A" />
      <stop offset="1" stop-color="#9D0D4E" />
    </linearGradient>
  </defs>
</svg>